<?xml version="1.0" standalone="no"?>
<!DOCTYPE svg PUBLIC "-//W3C//DTD SVG 20010904//EN"
 "http://www.w3.org/TR/2001/REC-SVG-20010904/DTD/svg10.dtd">
<svg version="1.0" xmlns="http://www.w3.org/2000/svg"
 width="1024.000000pt" height="1024.000000pt" viewBox="0 0 1024.000000 1024.000000"
 preserveAspectRatio="xMidYMid meet">

<g transform="translate(0.000000,1024.000000) scale(0.100000,-0.100000)"
fill="#000000" stroke="none">
<path d="M0 5120 l0 -5120 5120 0 5120 0 0 5120 0 5120 -5120 0 -5120 0 0
-5120z m5939 1667 c7 -10 11 -316 13 -1065 3 -1044 3 -1051 24 -1079 11 -15
42 -39 69 -53 51 -27 68 -54 53 -83 -8 -16 -31 -17 -316 -15 l-307 3 0 35 c0
32 4 37 50 60 91 46 85 -24 85 945 0 582 -4 863 -11 890 -13 48 -41 81 -77 90
-39 10 -52 24 -52 55 0 36 6 40 130 89 58 23 146 64 195 91 94 51 125 59 144
37z m-3635 -159 c7 -13 145 -432 305 -931 161 -500 301 -929 312 -953 29 -70
66 -111 124 -139 65 -32 88 -56 83 -87 l-3 -23 -398 -3 c-360 -2 -398 -1 -404
14 -13 35 10 66 66 87 29 11 69 36 89 54 34 32 35 35 29 90 -6 55 -120 429
-136 446 -4 4 -155 6 -336 5 l-329 -3 -63 -195 c-78 -242 -80 -274 -23 -329
22 -21 66 -52 98 -67 53 -27 57 -31 57 -64 l0 -35 -330 0 -330 0 0 35 c0 32 4
36 57 62 70 33 129 93 162 161 13 29 76 198 139 377 63 179 190 537 282 795
92 259 170 489 173 512 6 52 -12 83 -68 118 -38 24 -59 63 -45 84 4 7 87 11
240 11 232 0 235 0 249 -22z m1206 -208 c20 -20 21 -32 20 -213 l-2 -192 158
-3 c99 -1 163 -7 171 -14 10 -8 13 -30 11 -72 l-3 -61 -168 -5 -168 -5 1 -520
c0 -325 4 -534 11 -558 13 -48 37 -73 87 -88 51 -15 96 -6 166 31 31 17 67 30
80 30 29 0 56 -33 56 -69 0 -35 -100 -130 -172 -164 -190 -90 -428 -69 -509
45 -12 16 -31 58 -42 91 -20 59 -22 89 -27 615 l-5 554 -28 24 c-28 24 -38 27
-109 39 -24 4 -42 14 -49 27 -18 34 4 65 67 93 155 68 318 233 361 364 24 71
56 88 93 51z m4946 -399 c171 -33 280 -125 330 -281 15 -48 18 -115 23 -541 6
-460 7 -488 25 -508 23 -25 68 -27 119 -6 32 13 37 13 51 -1 9 -8 16 -29 16
-46 0 -40 -65 -104 -145 -144 -80 -38 -200 -46 -268 -16 -59 26 -103 86 -119
163 l-12 58 -77 -73 c-131 -123 -260 -172 -434 -164 -55 3 -113 11 -130 19
-139 62 -205 180 -205 366 0 239 131 342 703 558 l127 48 0 118 c0 151 -12
210 -54 253 -78 83 -270 72 -358 -21 -34 -36 -56 -88 -73 -175 -16 -86 -35
-115 -79 -124 -84 -15 -156 48 -156 136 0 145 201 330 406 374 80 17 239 20
310 7z m-4026 -611 c5 -535 7 -588 23 -625 26 -57 52 -81 103 -95 56 -16 159
-8 204 15 61 31 128 94 152 143 23 46 23 53 26 418 4 399 -5 541 -36 584 -10
14 -39 35 -65 48 -54 26 -73 52 -57 82 10 19 21 20 238 20 164 0 231 -3 240
-12 9 -9 12 -150 12 -572 0 -309 5 -603 10 -655 10 -107 24 -134 86 -167 43
-23 71 -62 61 -87 -6 -15 -30 -17 -216 -17 -207 0 -211 0 -225 23 -7 12 -17
40 -20 62 -4 22 -9 52 -12 68 l-6 28 -56 -49 c-163 -140 -287 -184 -460 -162
-137 18 -230 78 -275 177 -59 133 -60 136 -66 678 -4 371 -9 506 -18 522 -19
32 -61 62 -104 73 -29 8 -40 17 -45 35 -13 53 -3 56 260 53 l241 -3 5 -585z
m2385 555 c0 -26 -7 -33 -54 -57 -30 -15 -58 -33 -63 -40 -20 -32 -6 -107 56
-286 135 -396 251 -722 258 -722 7 0 31 63 179 485 134 378 151 441 138 489
-11 40 -28 52 -109 76 -53 16 -55 18 -55 51 l0 34 254 0 c231 0 255 -2 265
-17 13 -22 0 -47 -33 -64 -38 -19 -69 -51 -90 -91 -10 -21 -101 -247 -201
-503 -100 -256 -233 -598 -297 -760 -125 -319 -164 -399 -252 -518 -80 -107
-148 -167 -238 -210 -70 -33 -85 -36 -162 -36 -100 0 -152 21 -197 79 -32 42
-42 114 -25 168 14 40 72 97 100 97 11 0 64 -18 119 -40 109 -44 146 -48 198
-24 43 20 134 121 171 189 38 69 36 122 -11 270 -47 149 -437 1176 -480 1265
-29 60 -35 67 -94 95 -66 31 -86 61 -62 90 11 13 60 15 349 13 l336 -3 0 -30z"/>
<path d="M1990 6087 c-24 -78 -88 -274 -141 -434 l-96 -293 288 0 289 0 -10
23 c-5 12 -61 186 -125 387 -64 201 -123 386 -131 413 -9 26 -19 47 -22 47 -4
0 -27 -64 -52 -143z"/>
<path d="M8330 5272 c-141 -57 -204 -97 -269 -168 -67 -73 -94 -146 -89 -239
7 -139 72 -200 203 -192 118 7 195 55 256 162 l29 50 0 218 c0 119 -3 217 -7
216 -5 0 -60 -21 -123 -47z"/>
</g>
</svg>
